<?xml version="1.0" standalone="no"?>
<!DOCTYPE svg PUBLIC "-//W3C//DTD SVG 20010904//EN"
 "http://www.w3.org/TR/2001/REC-SVG-20010904/DTD/svg10.dtd">
<svg version="1.0" xmlns="http://www.w3.org/2000/svg"
 width="50px" height="39px" viewBox="0 0 400.000000 357.000000"
 preserveAspectRatio="xMidYMid meet">

<g transform="translate(0.000000,357.000000) scale(0.100000,-0.100000)"
fill="#000000" stroke="none">
<path d="M1870 3365 c-69 -33 -114 -76 -148 -140 -23 -43 -27 -62 -27 -135 0
-73 4 -92 27 -136 14 -27 45 -67 67 -87 l40 -36 -24 -107 c-33 -146 -57 -232
-116 -415 -62 -196 -87 -320 -95 -482 l-7 -127 -43 75 c-151 266 -356 492
-578 640 -99 66 -248 145 -274 145 -5 0 -17 20 -26 45 -23 58 -100 128 -161
145 -101 28 -213 -9 -274 -91 -91 -125 -50 -299 89 -372 50 -26 62 -29 132
-25 l77 5 39 -86 c80 -174 126 -358 157 -631 32 -288 93 -498 221 -769 30 -63
53 -115 52 -117 -2 -1 -43 9 -91 23 -49 14 -90 23 -93 20 -3 -2 16 -34 41 -70
66 -95 112 -216 145 -379 l11 -58 1014 0 1013 0 7 53 c13 107 84 282 179 441
26 43 45 80 43 82 -6 6 -120 -17 -140 -28 -10 -5 -21 -8 -23 -6 -2 3 10 45 26
94 41 120 77 301 90 459 7 72 18 162 26 200 29 144 115 376 232 631 l69 149
45 7 c210 29 300 277 154 422 -151 151 -405 64 -431 -148 -7 -51 -9 -54 -62
-86 -158 -94 -382 -290 -532 -464 -63 -74 -163 -206 -263 -349 -11 -15 -13 18
-14 185 -1 184 -4 214 -28 323 -16 65 -46 171 -68 235 -36 100 -65 171 -160
392 l-20 47 36 34 c88 83 115 227 64 338 -52 114 -137 170 -263 176 -70 4 -87
1 -135 -22z m215 -64 c89 -41 135 -114 135 -214 0 -237 -323 -316 -431 -104
-33 63 -36 133 -9 195 25 58 86 117 135 131 51 15 128 12 170 -8z m84 -646
c150 -349 193 -504 207 -746 8 -138 -9 -356 -40 -534 -13 -71 -22 -132 -20
-134 1 -2 36 64 77 145 179 358 471 714 759 929 133 99 179 126 186 106 8 -24
74 -92 107 -109 l32 -17 -63 -137 c-89 -193 -169 -398 -209 -537 -33 -117 -44
-181 -65 -391 -13 -132 -41 -265 -79 -380 -44 -130 -73 -182 -130 -230 l-51
-42 1 59 c0 32 4 81 9 108 4 28 6 51 5 53 -5 6 -58 -30 -93 -62 -19 -17 -52
-62 -74 -100 -36 -61 -42 -67 -51 -50 -6 10 -13 60 -16 111 l-6 91 -50 -23
c-53 -26 -104 -69 -146 -124 l-26 -33 -52 86 c-29 47 -57 86 -62 86 -17 0 -91
-74 -136 -137 -43 -61 -46 -63 -64 -47 -21 19 -122 165 -164 237 -15 26 -29
46 -31 44 -2 -2 1 -40 6 -85 12 -91 4 -122 -44 -180 l-28 -32 -60 52 c-33 28
-78 78 -101 110 -45 63 -43 63 -79 -1 -9 -16 -39 -46 -67 -67 -29 -20 -56 -44
-61 -54 -8 -15 -17 -9 -72 45 -54 53 -162 135 -178 135 -3 0 -4 -31 -2 -70 3
-62 -19 -170 -34 -170 -17 0 -88 57 -105 83 -35 57 -136 270 -173 365 -74 190
-99 302 -142 646 -27 217 -75 394 -151 557 l-45 96 25 25 c31 31 67 100 67
128 0 30 25 25 120 -26 172 -92 338 -230 475 -395 142 -170 249 -357 366 -636
35 -83 65 -151 66 -149 2 2 -6 64 -17 138 -28 193 -34 334 -21 477 15 163 33
245 93 431 50 156 128 446 128 478 0 15 13 17 110 17 l109 0 60 -140z m1481
35 c58 -29 92 -85 92 -152 1 -63 -17 -103 -66 -146 -82 -72 -219 -42 -272 60
-22 42 -18 126 9 173 45 79 152 108 237 65z m-3153 -11 c34 -13 80 -55 99 -91
23 -44 18 -125 -11 -174 -67 -114 -247 -109 -306 9 -76 147 66 314 218 256z
m1900 -2164 l46 -90 17 50 c25 74 54 126 91 163 l33 34 11 -54 c14 -65 38
-114 66 -129 28 -15 61 9 112 81 l37 53 0 -41 c0 -46 14 -89 37 -115 15 -16
21 -13 90 57 68 69 155 136 175 136 5 0 -1 -19 -13 -42 -44 -86 -91 -205 -109
-273 l-18 -70 -949 -3 -950 -2 -18 72 c-9 40 -32 112 -50 161 -18 48 -31 87
-28 87 19 0 136 -57 184 -90 32 -22 61 -40 63 -40 11 0 60 95 76 148 l18 57
59 -61 c41 -43 67 -81 87 -130 16 -38 32 -73 36 -77 4 -5 11 24 14 64 9 87 24
120 69 148 18 11 41 29 51 40 18 20 19 19 92 -47 41 -37 79 -81 86 -99 7 -18
17 -33 23 -33 14 0 127 116 144 148 12 22 13 22 50 -25 40 -51 116 -123 129
-123 4 0 15 17 25 38 10 20 41 68 69 106 l50 69 25 -39 c13 -21 45 -79 70
-129z"/>
</g>
</svg>
